<?xml version="1.0" encoding="UTF-8" standalone="no"?>
<svg
   version="1.1"
   width="300mm"
   height="150mm"
   viewBox="0 0 300 150"
   id="svg129"
   sodipodi:docname="cryptodancer-courtyard-switches.svg"
   inkscape:version="1.4 (e7c3feb100, 2024-10-09)"
   xmlns:inkscape="http://www.inkscape.org/namespaces/inkscape"
   xmlns:sodipodi="http://sodipodi.sourceforge.net/DTD/sodipodi-0.dtd"
   xmlns="http://www.w3.org/2000/svg"
   xmlns:svg="http://www.w3.org/2000/svg"
   xmlns:rdf="http://www.w3.org/1999/02/22-rdf-syntax-ns#"
   xmlns:cc="http://creativecommons.org/ns#"
   xmlns:dc="http://purl.org/dc/elements/1.1/">
  <defs
     id="defs129" />
  <sodipodi:namedview
     id="namedview129"
     pagecolor="#ffffff"
     bordercolor="#000000"
     borderopacity="0.25"
     inkscape:showpageshadow="2"
     inkscape:pageopacity="0.0"
     inkscape:pagecheckerboard="0"
     inkscape:deskcolor="#d1d1d1"
     inkscape:document-units="mm"
     inkscape:zoom="2.3549624"
     inkscape:cx="573.04525"
     inkscape:cy="297.6693"
     inkscape:window-width="3840"
     inkscape:window-height="2094"
     inkscape:window-x="0"
     inkscape:window-y="0"
     inkscape:window-maximized="0"
     inkscape:current-layer="g129" />
  <title
     id="title1">SVG Image created as cryptodancer-F_Courtyard.svg date 2025/03/21 10:38:36 </title>
  <desc
     id="desc1">Image generated by PCBNEW </desc>
  <g
     style="fill:#000000;stroke:#000000;stroke-width:0.05;stroke-linecap:round;stroke-linejoin:round;stroke-opacity:1"
     id="g129">
    <path
       style="fill:#000000;stroke:#000000;stroke-width:0.05;stroke-linecap:round;stroke-linejoin:round;stroke-opacity:1"
       d="m 263.9566,89.6518 -14.4889,3.8823 -3.8822,-14.4889 14.4888,-3.8823 z"
       id="path55" />
    <path
       style="fill:#000000;stroke:#000000;stroke-width:0.05;stroke-linecap:round;stroke-linejoin:round;stroke-opacity:1"
       d="m 287.462,30.5545 -14.4888,3.8823 -3.8823,-14.4889 14.4889,-3.8823 z"
       id="path57" />
    <path
       style="fill:#000000;stroke:#000000;stroke-width:0.05;stroke-linecap:round;stroke-linejoin:round;stroke-opacity:1"
       d="m 259.2979,72.2652 -14.4889,3.8823 -3.8823,-14.4889 14.4889,-3.8823 z"
       id="path58" />
    <path
       style="fill:#000000;stroke:#000000;stroke-width:0.05;stroke-linecap:round;stroke-linejoin:round;stroke-opacity:1"
       d="m 208.6165,29.9403 -14.4889,3.8823 -3.8823,-14.4889 14.4889,-3.8823 z"
       id="path60" />
    <path
       style="fill:#000000;stroke:#000000;stroke-width:0.05;stroke-linecap:round;stroke-linejoin:round;stroke-opacity:1"
       d="M 33.5031,19.9234 29.6208,34.4123 15.1319,30.53 19.0142,16.0411 Z"
       id="path64" />
    <path
       style="fill:#000000;stroke:#000000;stroke-width:0.05;stroke-linecap:round;stroke-linejoin:round;stroke-opacity:1"
       d="m 120.6073,61.8978 -3.8823,14.4889 -14.4889,-3.8823 3.8823,-14.4888 z"
       id="path65" />
    <path
       style="fill:#000000;stroke:#000000;stroke-width:0.05;stroke-linecap:round;stroke-linejoin:round;stroke-opacity:1"
       d="m 115.9485,79.2845 -3.8822,14.4889 -14.4889,-3.8823 3.8823,-14.4889 z"
       id="path66" />
    <path
       style="fill:#000000;stroke:#000000;stroke-width:0.05;stroke-linecap:round;stroke-linejoin:round;stroke-opacity:1"
       d="m 191.0403,37.7556 -14.4888,3.8823 -3.8823,-14.4889 14.4889,-3.8823 z"
       id="path69" />
    <path
       style="fill:#000000;stroke:#000000;stroke-width:0.05;stroke-linecap:round;stroke-linejoin:round;stroke-opacity:1"
       d="M 56.5144,7.4543 52.6321,21.9432 38.1432,18.0609 42.0255,3.572 Z"
       id="path70" />
    <path
       style="fill:#000000;stroke:#000000;stroke-width:0.05;stroke-linecap:round;stroke-linejoin:round;stroke-opacity:1"
       d="m 292.1208,47.9412 -14.4889,3.8822 -3.8823,-14.4888 14.4889,-3.8823 z"
       id="path71" />
    <path
       style="fill:#000000;stroke:#000000;stroke-width:0.05;stroke-linecap:round;stroke-linejoin:round;stroke-opacity:1"
       d="m 240.1688,74.2849 -14.4889,3.8823 -3.8822,-14.4889 14.4889,-3.8822 z"
       id="path72" />
    <path
       style="fill:#000000;stroke:#000000;stroke-width:0.05;stroke-linecap:round;stroke-linejoin:round;stroke-opacity:1"
       d="M 103.0311,54.0825 99.1489,68.5714 84.66,64.6891 88.5423,50.2002 Z"
       id="path74" />
    <path
       style="fill:#000000;stroke:#000000;stroke-width:0.05;stroke-linecap:round;stroke-linejoin:round;stroke-opacity:1"
       d="m 226.1926,22.125 -14.4889,3.8822 -3.8823,-14.4888 14.4889,-3.8823 z"
       id="path75" />
    <path
       style="fill:#000000;stroke:#000000;stroke-width:0.05;stroke-linecap:round;stroke-linejoin:round;stroke-opacity:1"
       d="M 61.6672,61.634 57.7849,76.1229 43.2961,72.2406 47.1783,57.7518 Z"
       id="path76" />
    <path
       style="fill:#000000;stroke:#000000;stroke-width:0.05;stroke-linecap:round;stroke-linejoin:round;stroke-opacity:1"
       d="M 24.1856,54.6967 20.3033,69.1856 5.8144,65.3033 9.6967,50.8144 Z"
       id="path79" />
    <path
       style="fill:#000000;stroke:#000000;stroke-width:0.05;stroke-linecap:round;stroke-linejoin:round;stroke-opacity:1"
       d="M 70.9847,26.8607 67.1024,41.3496 52.6135,37.4673 56.4958,22.9784 Z"
       id="path81" />
    <path
       style="fill:#000000;stroke:#000000;stroke-width:0.05;stroke-linecap:round;stroke-linejoin:round;stroke-opacity:1"
       d="m 269.1094,35.4721 -14.4888,3.8822 -3.8823,-14.4889 14.4889,-3.8822 z"
       id="path82" />
    <path
       style="fill:#000000;stroke:#000000;stroke-width:0.05;stroke-linecap:round;stroke-linejoin:round;stroke-opacity:1"
       d="M 37.8794,77.0009 33.9971,91.4898 19.5083,87.6075 23.3905,73.1186 Z"
       id="path85" />
    <path
       style="fill:#000000;stroke:#000000;stroke-width:0.05;stroke-linecap:round;stroke-linejoin:round;stroke-opacity:1"
       d="M 47.1969,42.2276 43.3146,56.7165 28.8257,52.8342 32.708,38.3453 Z"
       id="path86" />
    <path
       style="fill:#000000;stroke:#000000;stroke-width:0.05;stroke-linecap:round;stroke-linejoin:round;stroke-opacity:1"
       d="m 249.9804,37.4918 -14.4889,3.8823 -3.8823,-14.4889 14.4889,-3.8823 z"
       id="path87" />
    <path
       style="fill:#000000;stroke:#000000;stroke-width:0.05;stroke-linecap:round;stroke-linejoin:round;stroke-opacity:1"
       d="M 112.3486,19.3092 108.4663,33.7981 93.9775,29.9158 97.8597,15.4269 Z"
       id="path92" />
    <path
       style="fill:#000000;stroke:#000000;stroke-width:0.05;stroke-linecap:round;stroke-linejoin:round;stroke-opacity:1"
       d="M 94.7725,11.4938 90.8902,25.9827 76.4013,22.1004 80.2836,7.6115 Z"
       id="path93" />
    <path
       style="fill:#000000;stroke:#000000;stroke-width:0.05;stroke-linecap:round;stroke-linejoin:round;stroke-opacity:1"
       d="m 217.934,64.7136 -14.4889,3.8823 -3.8823,-14.4889 14.4889,-3.8823 z"
       id="path98" />
    <path
       style="fill:#000000;stroke:#000000;stroke-width:0.05;stroke-linecap:round;stroke-linejoin:round;stroke-opacity:1"
       d="m 209.6753,107.3023 -14.4889,3.8823 -3.8823,-14.4889 14.4889,-3.8823 z"
       id="path99" />
    <path
       style="fill:#000000;stroke:#000000;stroke-width:0.05;stroke-linecap:round;stroke-linejoin:round;stroke-opacity:1"
       d="m 131.8574,107.5623 -7.5,12.9903 -12.9904,-7.5 7.5,-12.9903 z"
       id="path100" />
    <path
       style="fill:#000000;stroke:#000000;stroke-width:0.05;stroke-linecap:round;stroke-linejoin:round;stroke-opacity:1"
       d="M 93.7137,88.8558 89.8314,103.3447 75.3425,99.4624 79.2248,84.9735 Z"
       id="path101" />
    <path
       style="fill:#000000;stroke:#000000;stroke-width:0.05;stroke-linecap:round;stroke-linejoin:round;stroke-opacity:1"
       d="m 296.7795,65.3278 -14.4889,3.8823 -3.8822,-14.4889 14.4888,-3.8823 z"
       id="path102" />
    <path
       style="fill:#000000;stroke:#000000;stroke-width:0.05;stroke-linecap:round;stroke-linejoin:round;stroke-opacity:1"
       d="M 75.6435,9.4741 71.7612,23.9629 57.2723,20.0807 61.1546,5.5918 Z"
       id="path103" />
    <path
       style="fill:#000000;stroke:#000000;stroke-width:0.05;stroke-linecap:round;stroke-linejoin:round;stroke-opacity:1"
       d="m 125.266,44.5112 -3.8823,14.4889 -14.4888,-3.8823 3.8822,-14.4889 z"
       id="path105" />
    <path
       style="fill:#000000;stroke:#000000;stroke-width:0.05;stroke-linecap:round;stroke-linejoin:round;stroke-opacity:1"
       d="m 230.8514,39.5116 -14.4889,3.8823 -3.8823,-14.4889 14.4889,-3.8823 z"
       id="path106" />
    <path
       style="fill:#000000;stroke:#000000;stroke-width:0.05;stroke-linecap:round;stroke-linejoin:round;stroke-opacity:1"
       d="M 273.7682,52.8587 259.2793,56.741 255.397,42.2521 269.8859,38.3698 Z"
       id="path107" />
    <path
       style="fill:#000000;stroke:#000000;stroke-width:0.05;stroke-linecap:round;stroke-linejoin:round;stroke-opacity:1"
       d="m 283.0857,87.632 -14.4889,3.8823 -3.8823,-14.4889 14.4889,-3.8822 z"
       id="path108" />
    <path
       style="fill:#000000;stroke:#000000;stroke-width:0.05;stroke-linecap:round;stroke-linejoin:round;stroke-opacity:1"
       d="m 200.3578,72.529 -14.4889,3.8822 -3.8822,-14.4888 14.4888,-3.8823 z"
       id="path111" />
    <path
       style="fill:#000000;stroke:#000000;stroke-width:0.05;stroke-linecap:round;stroke-linejoin:round;stroke-opacity:1"
       d="M 98.3724,71.4692 94.4901,85.9581 80.0012,82.0758 83.8835,67.5869 Z"
       id="path112" />
    <path
       style="fill:#000000;stroke:#000000;stroke-width:0.05;stroke-linecap:round;stroke-linejoin:round;stroke-opacity:1"
       d="m 213.2752,47.327 -14.4889,3.8822 -3.8823,-14.4888 14.4889,-3.8823 z"
       id="path114" />
    <path
       style="fill:#000000;stroke:#000000;stroke-width:0.05;stroke-linecap:round;stroke-linejoin:round;stroke-opacity:1"
       d="M 66.326,44.2474 62.4437,58.7363 47.9548,54.854 51.8371,40.3651 Z"
       id="path119" />
    <path
       style="fill:#000000;stroke:#000000;stroke-width:0.05;stroke-linecap:round;stroke-linejoin:round;stroke-opacity:1"
       d="M 42.5382,59.6143 38.6559,74.1031 24.167,70.2209 28.0493,55.732 Z"
       id="path121" />
    <path
       style="fill:#000000;stroke:#000000;stroke-width:0.05;stroke-linecap:round;stroke-linejoin:round;stroke-opacity:1"
       d="m 129.9248,27.1245 -3.8823,14.4889 -14.4889,-3.8823 3.8823,-14.4889 z"
       id="path123" />
    <path
       style="fill:#000000;stroke:#000000;stroke-width:0.05;stroke-linecap:round;stroke-linejoin:round;stroke-opacity:1"
       d="m 111.2898,96.6712 -3.8823,14.4889 -14.4889,-3.8823 3.8823,-14.4889 z"
       id="path124" />
    <path
       style="fill:#000000;stroke:#000000;stroke-width:0.05;stroke-linecap:round;stroke-linejoin:round;stroke-opacity:1"
       d="M 28.8443,37.31 24.962,51.7989 10.4732,47.9166 14.3554,33.4277 Z"
       id="path125" />
    <path
       style="fill:#000000;stroke:#000000;stroke-width:0.05;stroke-linecap:round;stroke-linejoin:round;stroke-opacity:1"
       d="M 80.7963,63.6538 76.914,78.1427 62.4251,74.2604 66.3074,59.7715 Z"
       id="path128" />
    <path
       style="fill:#000000;stroke:#000000;stroke-width:0.05;stroke-linecap:round;stroke-linejoin:round;stroke-opacity:1"
       d="m 235.5101,56.8983 -14.4889,3.8823 -3.8823,-14.4889 14.4889,-3.8823 z"
       id="path129" />
    <path
       style="fill:#000000;fill-opacity:1;stroke:#000000;stroke-width:0.05;stroke-linecap:round;stroke-linejoin:round;stroke-opacity:1"
       d="m 191.2269,113.0772 -12.9903,7.5 -7.5,-12.9904 12.9903,-7.5 z"
       id="path3" />
    <path
       style="fill:#000000;fill-opacity:1;stroke:#000000;stroke-width:0.05;stroke-linecap:round;stroke-linejoin:round;stroke-opacity:1"
       d="M 85.455,46.2672 81.5727,60.7561 67.0838,56.8738 70.9661,42.3849 Z"
       id="path5" />
    <path
       style="fill:#000000;fill-opacity:1;stroke:#000000;stroke-width:0.05;stroke-linecap:round;stroke-linejoin:round;stroke-opacity:1"
       d="m 227.2514,99.487 -14.4888,3.8822 -3.8823,-14.4888 14.4889,-3.8823 z"
       id="path8" />
    <path
       style="fill:#000000;fill-opacity:1;stroke:#000000;stroke-width:0.05;stroke-linecap:round;stroke-linejoin:round;stroke-opacity:1"
       d="m 278.4269,70.2454 -14.4889,3.8823 -3.8822,-14.4889 14.4888,-3.8823 z"
       id="path9" />
    <path
       style="fill:#000000;fill-opacity:1;stroke:#000000;stroke-width:0.05;stroke-linecap:round;stroke-linejoin:round;stroke-opacity:1"
       d="m 195.6991,55.1423 -14.4889,3.8823 -3.8823,-14.4889 14.4889,-3.8823 z"
       id="path12" />
    <path
       style="fill:#000000;fill-opacity:1;stroke:#000000;stroke-width:0.05;stroke-linecap:round;stroke-linejoin:round;stroke-opacity:1"
       d="M 76.1375,81.0405 72.2552,95.5294 57.7664,91.6471 61.6486,77.1582 Z"
       id="path16" />
    <path
       style="fill:#000000;fill-opacity:1;stroke:#000000;stroke-width:0.05;stroke-linecap:round;stroke-linejoin:round;stroke-opacity:1"
       d="m 222.5927,82.1003 -14.4889,3.8823 -3.8823,-14.4889 14.4889,-3.8823 z"
       id="path19" />
    <path
       style="fill:#000000;fill-opacity:1;stroke:#000000;stroke-width:0.05;stroke-linecap:round;stroke-linejoin:round;stroke-opacity:1"
       d="m 254.6391,54.8785 -14.4888,3.8823 -3.8823,-14.4889 14.4889,-3.8823 z"
       id="path20" />
    <path
       style="fill:#000000;fill-opacity:1;stroke:#000000;stroke-width:0.05;stroke-linecap:round;stroke-linejoin:round;stroke-opacity:1"
       d="m 148.7193,121.0621 -9.6418,11.4906 -11.4907,-9.6418 9.6418,-11.4906 z"
       id="path24" />
    <path
       style="fill:#000000;fill-opacity:1;stroke:#000000;stroke-width:0.05;stroke-linecap:round;stroke-linejoin:round;stroke-opacity:1"
       d="M 51.8557,24.8409 47.9734,39.3298 33.4845,35.4475 37.3668,20.9586 Z"
       id="path25" />
    <path
       style="fill:#000000;fill-opacity:1;stroke:#000000;stroke-width:0.05;stroke-linecap:round;stroke-linejoin:round;stroke-opacity:1"
       d="M 90.1138,28.8805 86.2315,43.3694 71.7426,39.4871 75.6249,24.9982 Z"
       id="path26" />
    <path
       style="fill:#000000;fill-opacity:1;stroke:#000000;stroke-width:0.05;stroke-linecap:round;stroke-linejoin:round;stroke-opacity:1"
       d="M 107.6899,36.6958 103.8076,51.1847 89.3187,47.3024 93.201,32.8136 Z"
       id="path30" />
    <path
       style="fill:#000000;fill-opacity:1;stroke:#000000;stroke-width:0.05;stroke-linecap:round;stroke-linejoin:round;stroke-opacity:1"
       d="m 244.8276,91.6716 -14.4889,3.8823 -3.8823,-14.4889 14.4889,-3.8823 z"
       id="path32" />
    <path
       style="fill:#000000;fill-opacity:1;stroke:#000000;stroke-width:0.05;stroke-linecap:round;stroke-linejoin:round;stroke-opacity:1"
       d="M 264.4507,18.0854 249.9618,21.9677 246.0795,7.4788 260.5684,3.5965 Z"
       id="path33" />
    <path
       style="fill:#000000;fill-opacity:1;stroke:#000000;stroke-width:0.05;stroke-linecap:round;stroke-linejoin:round;stroke-opacity:1"
       d="M 245.3217,20.1052 230.8328,23.9875 226.9505,9.4986 241.4394,5.6163 Z"
       id="path35" />
    <path
       style="fill:#000000;stroke:#000000;stroke-width:0.05;stroke-linecap:round;stroke-linejoin:round;stroke-opacity:1"
       d="m 175.0071,122.9354 -11.4906,9.6419 -9.6419,-11.4907 11.4907,-9.6418 z"
       id="path42" />
    <path
       style="fill:#000000;stroke:#000000;stroke-width:0.05;stroke-linecap:round;stroke-linejoin:round;stroke-opacity:1"
       d="M 57.0085,79.0207 53.1262,93.5096 38.6373,89.6273 42.5196,75.1384 Z"
       id="path44" />
    <path
       style="fill:#000000;stroke:#000000;stroke-width:0.05;stroke-linecap:round;stroke-linejoin:round;stroke-opacity:1"
       d="m 205.0166,89.9156 -14.4889,3.8823 -3.8823,-14.4889 14.4889,-3.8823 z"
       id="path46" />
  </g>
  <metadata
     id="metadata129">
    <rdf:RDF>
      <cc:Work
         rdf:about="">
        <dc:title>SVG Image created as cryptodancer-F_Courtyard.svg date 2025/03/21 10:38:36 </dc:title>
      </cc:Work>
    </rdf:RDF>
  </metadata>
</svg>
