<?xml version="1.0" encoding="UTF-8" standalone="no"?>
<svg
   version="1.1"
   width="300mm"
   height="150mm"
   viewBox="0 0 300 150"
   id="svg24"
   sodipodi:docname="cryptodancer-edge.svg"
   inkscape:version="1.4 (e7c3feb100, 2024-10-09)"
   xmlns:inkscape="http://www.inkscape.org/namespaces/inkscape"
   xmlns:sodipodi="http://sodipodi.sourceforge.net/DTD/sodipodi-0.dtd"
   xmlns="http://www.w3.org/2000/svg"
   xmlns:svg="http://www.w3.org/2000/svg"
   xmlns:rdf="http://www.w3.org/1999/02/22-rdf-syntax-ns#"
   xmlns:cc="http://creativecommons.org/ns#"
   xmlns:dc="http://purl.org/dc/elements/1.1/">
  <defs
     id="defs24" />
  <sodipodi:namedview
     id="namedview24"
     pagecolor="#ffffff"
     bordercolor="#000000"
     borderopacity="0.25"
     inkscape:showpageshadow="2"
     inkscape:pageopacity="0.0"
     inkscape:pagecheckerboard="0"
     inkscape:deskcolor="#d1d1d1"
     inkscape:document-units="mm"
     showgrid="false"
     inkscape:zoom="2.3887276"
     inkscape:cx="621.04193"
     inkscape:cy="303.50886"
     inkscape:window-width="3840"
     inkscape:window-height="2128"
     inkscape:window-x="0"
     inkscape:window-y="0"
     inkscape:window-maximized="0"
     inkscape:current-layer="svg24" />
  <title
     id="title1">SVG Image created as sketchfan-Edge_Cuts.svg date 2025/03/17 13:32:42 </title>
  <desc
     id="desc1">Image generated by PCBNEW </desc>
  <path
     id="path24"
     style="fill:none;stroke:#000000;stroke-width:0.05;stroke-linecap:round;stroke-linejoin:round;stroke-opacity:1"
     d="m 193,121.29297 18,-5 75,-20.000001 14,-26 -14,-52 -26,-12.0000001 -51,3.5 -49,16.5000001 H 140 L 91,9.7929689 l -51,-3.5 -26,12.0000001 -14,52 14,26 75,20.000001 18,5 16,9 16,13 c 0.55228,0.55229 1.44772,0.55229 2,0 l 7,-7 c 1.10456,-1.10458 2.89544,-1.10458 4,0 l 7,7 c 0.55228,0.55229 1.44772,0.55229 2,0 l 16,-13 z"
     sodipodi:nodetypes="ccccccccccccccccccccccccc" />
  <metadata
     id="metadata24">
    <rdf:RDF>
      <cc:Work
         rdf:about="">
        <dc:title>SVG Image created as sketchfan-Edge_Cuts.svg date 2025/03/17 13:32:42 </dc:title>
      </cc:Work>
    </rdf:RDF>
  </metadata>
</svg>
