<?xml version="1.0" encoding="UTF-8" standalone="no"?>
<svg
   version="1.1"
   width="300mm"
   height="150mm"
   viewBox="0 0 300 150"
   id="svg129"
   sodipodi:docname="cryptodancer-courtyard-diodes.svg"
   inkscape:version="1.4 (e7c3feb100, 2024-10-09)"
   xmlns:inkscape="http://www.inkscape.org/namespaces/inkscape"
   xmlns:sodipodi="http://sodipodi.sourceforge.net/DTD/sodipodi-0.dtd"
   xmlns="http://www.w3.org/2000/svg"
   xmlns:svg="http://www.w3.org/2000/svg"
   xmlns:rdf="http://www.w3.org/1999/02/22-rdf-syntax-ns#"
   xmlns:cc="http://creativecommons.org/ns#"
   xmlns:dc="http://purl.org/dc/elements/1.1/">
  <defs
     id="defs129" />
  <sodipodi:namedview
     id="namedview129"
     pagecolor="#ffffff"
     bordercolor="#000000"
     borderopacity="0.25"
     inkscape:showpageshadow="2"
     inkscape:pageopacity="0.0"
     inkscape:pagecheckerboard="0"
     inkscape:deskcolor="#d1d1d1"
     inkscape:document-units="mm"
     inkscape:zoom="2.3549624"
     inkscape:cx="573.04525"
     inkscape:cy="297.6693"
     inkscape:window-width="3840"
     inkscape:window-height="2094"
     inkscape:window-x="0"
     inkscape:window-y="0"
     inkscape:window-maximized="0"
     inkscape:current-layer="g129" />
  <title
     id="title1">SVG Image created as cryptodancer-F_Courtyard.svg date 2025/03/21 10:38:36 </title>
  <desc
     id="desc1">Image generated by PCBNEW </desc>
  <g
     style="fill:#000000;stroke:#000000;stroke-width:0.05;stroke-linecap:round;stroke-linejoin:round;stroke-opacity:1"
     id="g129">
    <path
       style="fill:#000000;stroke:#000000;stroke-width:0.05;stroke-linecap:round;stroke-linejoin:round;stroke-opacity:1"
       d="m 131.2421,34.1418 -1.8118,6.7615 -1.9318,-0.5177 1.8117,-6.7615 z"
       id="path56" />
    <path
       style="fill:#000000;stroke:#000000;stroke-width:0.05;stroke-linecap:round;stroke-linejoin:round;stroke-opacity:1"
       d="m 267.0717,15.8506 -1.9319,0.5176 -1.8117,-6.7614 1.9319,-0.5177 z"
       id="path59" />
    <path
       style="fill:#000000;stroke:#000000;stroke-width:0.05;stroke-linecap:round;stroke-linejoin:round;stroke-opacity:1"
       d="m 62.9051,68.6138 -1.8117,6.7614 -1.9318,-0.5176 1.8117,-6.7615 z"
       id="path61" />
    <path
       style="fill:#000000;stroke:#000000;stroke-width:0.05;stroke-linecap:round;stroke-linejoin:round;stroke-opacity:1"
       d="m 131.2618,114.762 -3.5,6.0622 -1.7321,-1 3.5,-6.0622 z"
       id="path62" />
    <path
       style="fill:#000000;stroke:#000000;stroke-width:0.05;stroke-linecap:round;stroke-linejoin:round;stroke-opacity:1"
       d="m 220.3892,62.4227 -1.9318,0.5176 -1.8118,-6.7614 1.9319,-0.5177 z"
       id="path63" />
    <path
       style="fill:#000000;stroke:#000000;stroke-width:0.05;stroke-linecap:round;stroke-linejoin:round;stroke-opacity:1"
       d="m 257.1649,52.6173 -1.9318,0.5177 -1.8118,-6.7615 1.9319,-0.5176 z"
       id="path67" />
    <path
       style="fill:#000000;stroke:#000000;stroke-width:0.05;stroke-linecap:round;stroke-linejoin:round;stroke-opacity:1"
       d="m 113.6419,26.2639 -1.8118,6.7614 -1.9318,-0.5176 1.8117,-6.7615 z"
       id="path68" />
    <path
       style="fill:#000000;stroke:#000000;stroke-width:0.05;stroke-linecap:round;stroke-linejoin:round;stroke-opacity:1"
       d="m 147.072,127.9851 -4.4995,5.3623 -1.5321,-1.2856 4.4995,-5.3623 z"
       id="path73" />
    <path
       style="fill:#000000;stroke:#000000;stroke-width:0.05;stroke-linecap:round;stroke-linejoin:round;stroke-opacity:1"
       d="m 82.0585,70.6931 -1.8118,6.7615 -1.9318,-0.5176 1.8117,-6.7615 z"
       id="path77" />
    <path
       style="fill:#000000;stroke:#000000;stroke-width:0.05;stroke-linecap:round;stroke-linejoin:round;stroke-opacity:1"
       d="m 122.0287,68.891 -1.8118,6.7615 -1.9318,-0.5176 1.8117,-6.7615 z"
       id="path78" />
    <path
       style="fill:#000000;stroke:#000000;stroke-width:0.05;stroke-linecap:round;stroke-linejoin:round;stroke-opacity:1"
       d="m 77.3683,87.975 -1.8117,6.7615 -1.9318,-0.5176 1.8117,-6.7615 z"
       id="path80" />
    <path
       style="fill:#000000;stroke:#000000;stroke-width:0.05;stroke-linecap:round;stroke-linejoin:round;stroke-opacity:1"
       d="m 198.2434,52.9529 -1.9319,0.5177 -1.8117,-6.7615 1.9319,-0.5177 z"
       id="path83" />
    <path
       style="fill:#000000;stroke:#000000;stroke-width:0.05;stroke-linecap:round;stroke-linejoin:round;stroke-opacity:1"
       d="m 238.0298,54.6328 -1.9319,0.5176 -1.8117,-6.7615 1.9318,-0.5176 z"
       id="path84" />
    <path
       style="fill:#000000;stroke:#000000;stroke-width:0.05;stroke-linecap:round;stroke-linejoin:round;stroke-opacity:1"
       d="m 294.7785,45.6879 -1.9318,0.5177 -1.8118,-6.7615 1.9319,-0.5176 z"
       id="path88" />
    <path
       style="fill:#000000;stroke:#000000;stroke-width:0.05;stroke-linecap:round;stroke-linejoin:round;stroke-opacity:1"
       d="m 252.5385,35.3801 -1.9318,0.5177 -1.8118,-6.7615 1.9319,-0.5176 z"
       id="path89" />
    <path
       style="fill:#000000;stroke:#000000;stroke-width:0.05;stroke-linecap:round;stroke-linejoin:round;stroke-opacity:1"
       d="m 53.1321,31.7164 -1.8117,6.7615 -1.9319,-0.5176 1.8117,-6.7615 z"
       id="path90" />
    <path
       style="fill:#000000;stroke:#000000;stroke-width:0.05;stroke-linecap:round;stroke-linejoin:round;stroke-opacity:1"
       d="m 202.7713,70.2806 -1.9319,0.5176 -1.8117,-6.7615 1.9319,-0.5176 z"
       id="path91" />
    <path
       style="fill:#000000;stroke:#000000;stroke-width:0.05;stroke-linecap:round;stroke-linejoin:round;stroke-opacity:1"
       d="m 96.0827,18.4084 -1.8117,6.7615 -1.9319,-0.5176 1.8117,-6.7615 z"
       id="path94" />
    <path
       style="fill:#000000;stroke:#000000;stroke-width:0.05;stroke-linecap:round;stroke-linejoin:round;stroke-opacity:1"
       d="m 280.965,68.0387 -1.9319,0.5176 -1.8117,-6.7615 1.9318,-0.5176 z"
       id="path95" />
    <path
       style="fill:#000000;stroke:#000000;stroke-width:0.05;stroke-linecap:round;stroke-linejoin:round;stroke-opacity:1"
       d="m 290.0588,28.294 -1.9319,0.5177 -1.8117,-6.7615 1.9319,-0.5176 z"
       id="path96" />
    <path
       style="fill:#000000;stroke:#000000;stroke-width:0.05;stroke-linecap:round;stroke-linejoin:round;stroke-opacity:1"
       d="m 117.2692,86.2653 -1.8117,6.7615 -1.9319,-0.5176 1.8118,-6.7615 z"
       id="path97" />
    <path
       style="fill:#000000;stroke:#000000;stroke-width:0.05;stroke-linecap:round;stroke-linejoin:round;stroke-opacity:1"
       d="m 176.3682,119.7166 -1.5321,1.2856 -4.4995,-5.3623 1.5321,-1.2856 z"
       id="path104" />
    <path
       style="fill:#000000;stroke:#000000;stroke-width:0.05;stroke-linecap:round;stroke-linejoin:round;stroke-opacity:1"
       d="m 247.8651,17.8454 -1.9318,0.5176 -1.8118,-6.7615 1.9319,-0.5176 z"
       id="path109" />
    <path
       style="fill:#000000;stroke:#000000;stroke-width:0.05;stroke-linecap:round;stroke-linejoin:round;stroke-opacity:1"
       d="m 25.4266,61.6883 -1.8117,6.7615 -1.9319,-0.5177 1.8118,-6.7614 z"
       id="path110" />
    <path
       style="fill:#000000;stroke:#000000;stroke-width:0.05;stroke-linecap:round;stroke-linejoin:round;stroke-opacity:1"
       d="m 242.6947,72.0922 -1.9319,0.5176 -1.8117,-6.7615 1.9318,-0.5176 z"
       id="path113" />
    <path
       style="fill:#000000;stroke:#000000;stroke-width:0.05;stroke-linecap:round;stroke-linejoin:round;stroke-opacity:1"
       d="m 261.9204,70.0541 -1.9318,0.5176 -1.8118,-6.7614 1.9319,-0.5177 z"
       id="path115" />
    <path
       style="fill:#000000;stroke:#000000;stroke-width:0.05;stroke-linecap:round;stroke-linejoin:round;stroke-opacity:1"
       d="m 34.7643,26.7722 -1.8117,6.7614 -1.9319,-0.5176 1.8117,-6.7615 z"
       id="path116" />
    <path
       style="fill:#000000;stroke:#000000;stroke-width:0.05;stroke-linecap:round;stroke-linejoin:round;stroke-opacity:1"
       d="m 86.6757,53.3477 -1.8117,6.7615 -1.9319,-0.5177 1.8118,-6.7614 z"
       id="path117" />
    <path
       style="fill:#000000;stroke:#000000;stroke-width:0.05;stroke-linecap:round;stroke-linejoin:round;stroke-opacity:1"
       d="m 212.1464,105.1314 -1.9319,0.5177 -1.8117,-6.7615 1.9319,-0.5177 z"
       id="path118" />
    <path
       style="fill:#000000;stroke:#000000;stroke-width:0.05;stroke-linecap:round;stroke-linejoin:round;stroke-opacity:1"
       d="m 99.6176,78.4099 -1.8117,6.7615 -1.9318,-0.5176 1.8117,-6.7615 z"
       id="path120" />
    <path
       style="fill:#000000;stroke:#000000;stroke-width:0.05;stroke-linecap:round;stroke-linejoin:round;stroke-opacity:1"
       d="m 228.6775,19.8211 -1.9318,0.5176 -1.8117,-6.7614 1.9318,-0.5177 z"
       id="path122" />
    <path
       style="fill:#000000;stroke:#000000;stroke-width:0.05;stroke-linecap:round;stroke-linejoin:round;stroke-opacity:1"
       d="m 193.2382,110.1776 -1.732,1 -3.5,-6.0622 1.732,-1 z"
       id="path126" />
    <path
       style="fill:#000000;stroke:#000000;stroke-width:0.05;stroke-linecap:round;stroke-linejoin:round;stroke-opacity:1"
       d="m 276.2548,50.6019 -1.9319,0.5177 -1.8117,-6.7615 1.9318,-0.5176 z"
       id="path127" />
    <path
       style="fill:#000000;fill-opacity:1;stroke:#000000;stroke-width:0.05;stroke-linecap:round;stroke-linejoin:round;stroke-opacity:1"
       d="m 57.8453,14.319 -1.8117,6.7615 -1.9319,-0.5176 1.8118,-6.7615 z"
       id="path1" />
    <path
       style="fill:#000000;fill-opacity:1;stroke:#000000;stroke-width:0.05;stroke-linecap:round;stroke-linejoin:round;stroke-opacity:1"
       d="m 72.2392,33.8189 -1.8117,6.7615 -1.9319,-0.5176 1.8118,-6.7615 z"
       id="path2" />
    <path
       style="fill:#000000;fill-opacity:1;stroke:#000000;stroke-width:0.05;stroke-linecap:round;stroke-linejoin:round;stroke-opacity:1"
       d="m 112.556,103.6166 -1.8118,6.7614 -1.9318,-0.5176 1.8117,-6.7615 z"
       id="path4" />
    <path
       style="fill:#000000;fill-opacity:1;stroke:#000000;stroke-width:0.05;stroke-linecap:round;stroke-linejoin:round;stroke-opacity:1"
       d="m 266.3815,87.4229 -1.9319,0.5177 -1.8117,-6.7615 1.9319,-0.5177 z"
       id="path6" />
    <path
       style="fill:#000000;fill-opacity:1;stroke:#000000;stroke-width:0.05;stroke-linecap:round;stroke-linejoin:round;stroke-opacity:1"
       d="m 94.9506,95.946 -1.8117,6.7615 -1.9319,-0.5177 1.8117,-6.7615 z"
       id="path7" />
    <path
       style="fill:#000000;fill-opacity:1;stroke:#000000;stroke-width:0.05;stroke-linecap:round;stroke-linejoin:round;stroke-opacity:1"
       d="m 299.4887,63.17 -1.9319,0.5176 -1.8117,-6.7615 1.9319,-0.5176 z"
       id="path10" />
    <path
       style="fill:#000000;fill-opacity:1;stroke:#000000;stroke-width:0.05;stroke-linecap:round;stroke-linejoin:round;stroke-opacity:1"
       d="m 271.5931,33.2334 -1.9318,0.5176 -1.8118,-6.7614 1.9319,-0.5177 z"
       id="path11" />
    <path
       style="fill:#000000;fill-opacity:1;stroke:#000000;stroke-width:0.05;stroke-linecap:round;stroke-linejoin:round;stroke-opacity:1"
       d="M 48.4845,49.1196 46.6728,55.8811 44.741,55.3635 46.5527,48.602 Z"
       id="path13" />
    <path
       style="fill:#000000;fill-opacity:1;stroke:#000000;stroke-width:0.05;stroke-linecap:round;stroke-linejoin:round;stroke-opacity:1"
       d="m 30.1398,44.2678 -1.8117,6.7614 -1.9318,-0.5176 1.8117,-6.7615 z"
       id="path14" />
    <path
       style="fill:#000000;fill-opacity:1;stroke:#000000;stroke-width:0.05;stroke-linecap:round;stroke-linejoin:round;stroke-opacity:1"
       d="m 126.6495,51.4474 -1.8117,6.7615 -1.9319,-0.5177 1.8117,-6.7615 z"
       id="path15" />
    <path
       style="fill:#000000;fill-opacity:1;stroke:#000000;stroke-width:0.05;stroke-linecap:round;stroke-linejoin:round;stroke-opacity:1"
       d="m 104.3078,61.0587 -1.8118,6.7615 -1.9318,-0.5176 1.8117,-6.7615 z"
       id="path17" />
    <path
       style="fill:#000000;fill-opacity:1;stroke:#000000;stroke-width:0.05;stroke-linecap:round;stroke-linejoin:round;stroke-opacity:1"
       d="m 215.7782,45.1069 -1.9319,0.5176 -1.8117,-6.7614 1.9318,-0.5177 z"
       id="path18" />
    <path
       style="fill:#000000;fill-opacity:1;stroke:#000000;stroke-width:0.05;stroke-linecap:round;stroke-linejoin:round;stroke-opacity:1"
       d="m 207.5156,87.6419 -1.9318,0.5177 -1.8118,-6.7615 1.9319,-0.5176 z"
       id="path21" />
    <path
       style="fill:#000000;fill-opacity:1;stroke:#000000;stroke-width:0.05;stroke-linecap:round;stroke-linejoin:round;stroke-opacity:1"
       d="m 91.3926,35.8521 -1.8118,6.7615 -1.9318,-0.5177 1.8117,-6.7615 z"
       id="path22" />
    <path
       style="fill:#000000;fill-opacity:1;stroke:#000000;stroke-width:0.05;stroke-linecap:round;stroke-linejoin:round;stroke-opacity:1"
       d="m 58.2612,86.0343 -1.8117,6.7615 -1.9319,-0.5177 1.8118,-6.7614 z"
       id="path23" />
    <path
       style="fill:#000000;fill-opacity:1;stroke:#000000;stroke-width:0.05;stroke-linecap:round;stroke-linejoin:round;stroke-opacity:1"
       d="m 39.131,84.0704 -1.8118,6.7615 -1.9318,-0.5176 1.8117,-6.7615 z"
       id="path27" />
    <path
       style="fill:#000000;fill-opacity:1;stroke:#000000;stroke-width:0.05;stroke-linecap:round;stroke-linejoin:round;stroke-opacity:1"
       d="m 108.9748,43.6613 -1.8117,6.7615 -1.9319,-0.5177 1.8118,-6.7615 z"
       id="path28" />
    <path
       style="fill:#000000;fill-opacity:1;stroke:#000000;stroke-width:0.05;stroke-linecap:round;stroke-linejoin:round;stroke-opacity:1"
       d="m 67.1807,51.1617 -1.8117,6.7615 -1.9319,-0.5176 1.8118,-6.7615 z"
       id="path29" />
    <path
       style="fill:#000000;fill-opacity:1;stroke:#000000;stroke-width:0.05;stroke-linecap:round;stroke-linejoin:round;stroke-opacity:1"
       d="m 76.9063,16.3753 -1.8118,6.7615 -1.9318,-0.5177 1.8117,-6.7615 z"
       id="path31" />
    <path
       style="fill:#000000;fill-opacity:1;stroke:#000000;stroke-width:0.05;stroke-linecap:round;stroke-linejoin:round;stroke-opacity:1"
       d="m 211.1238,27.6291 -1.9319,0.5177 -1.8117,-6.7615 1.9318,-0.5177 z"
       id="path34" />
    <path
       style="fill:#000000;fill-opacity:1;stroke:#000000;stroke-width:0.05;stroke-linecap:round;stroke-linejoin:round;stroke-opacity:1"
       d="m 193.551,35.4371 -1.9319,0.5177 -1.8117,-6.7615 1.9318,-0.5176 z"
       id="path36" />
    <path
       style="fill:#000000;stroke:#000000;stroke-width:0.05;stroke-linecap:round;stroke-linejoin:round;stroke-opacity:1"
       d="m 229.7417,97.1377 -1.9319,0.5176 -1.8117,-6.7614 1.9318,-0.5177 z"
       id="path43" />
    <path
       style="fill:#000000;stroke:#000000;stroke-width:0.05;stroke-linecap:round;stroke-linejoin:round;stroke-opacity:1"
       d="m 225.0768,79.9274 -1.9319,0.5176 -1.8117,-6.7615 1.9318,-0.5176 z"
       id="path45" />
    <path
       style="fill:#000000;stroke:#000000;stroke-width:0.05;stroke-linecap:round;stroke-linejoin:round;stroke-opacity:1"
       d="m 43.7944,66.6557 -1.8117,6.7615 -1.9319,-0.5177 1.8117,-6.7615 z"
       id="path47" />
    <path
       style="fill:#000000;stroke:#000000;stroke-width:0.05;stroke-linecap:round;stroke-linejoin:round;stroke-opacity:1"
       d="m 247.3143,89.3931 -1.9319,0.5176 -1.8117,-6.7615 1.9319,-0.5176 z"
       id="path48" />
    <path
       style="fill:#000000;stroke:#000000;stroke-width:0.05;stroke-linecap:round;stroke-linejoin:round;stroke-opacity:1"
       d="m 285.7432,85.3801 -1.9319,0.5176 -1.8117,-6.7615 1.9319,-0.5176 z"
       id="path49" />
    <path
       style="fill:#000000;stroke:#000000;stroke-width:0.05;stroke-linecap:round;stroke-linejoin:round;stroke-opacity:1"
       d="m 233.3889,37.2989 -1.9318,0.5176 -1.8117,-6.7614 1.9318,-0.5177 z"
       id="path50" />
  </g>
  <metadata
     id="metadata129">
    <rdf:RDF>
      <cc:Work
         rdf:about="">
        <dc:title>SVG Image created as cryptodancer-F_Courtyard.svg date 2025/03/21 10:38:36 </dc:title>
      </cc:Work>
    </rdf:RDF>
  </metadata>
</svg>
