<?xml version="1.0" encoding="UTF-8" standalone="no"?>
<!-- Created with Inkscape (http://www.inkscape.org/) -->

<svg
   version="1.1"
   id="svg1"
   width="30mm"
   height="30mm"
   viewBox="0 0 30 30"
   sodipodi:docname="seele-eyes.svg"
   inkscape:version="1.3.2 (091e20ef0f, 2023-11-25, custom)"
   xmlns:inkscape="http://www.inkscape.org/namespaces/inkscape"
   xmlns:sodipodi="http://sodipodi.sourceforge.net/DTD/sodipodi-0.dtd"
   xmlns="http://www.w3.org/2000/svg"
   xmlns:svg="http://www.w3.org/2000/svg">
  <defs
     id="defs1" />
  <sodipodi:namedview
     id="namedview1"
     pagecolor="#ffffff"
     bordercolor="#000000"
     borderopacity="0.25"
     inkscape:showpageshadow="2"
     inkscape:pageopacity="0.0"
     inkscape:pagecheckerboard="0"
     inkscape:deskcolor="#d1d1d1"
     showgrid="false"
     inkscape:zoom="12.046866"
     inkscape:cx="48.352827"
     inkscape:cy="63.834032"
     inkscape:window-width="3840"
     inkscape:window-height="2160"
     inkscape:window-x="0"
     inkscape:window-y="0"
     inkscape:window-maximized="0"
     inkscape:current-layer="layer2"
     inkscape:document-units="mm" />
  <g
     inkscape:groupmode="layer"
     id="layer2"
     inkscape:label="Design">
    <path
       style="fill:none;stroke:#000000;stroke-width:0.4;stroke-linecap:round;stroke-linejoin:round;stroke-dasharray:none"
       d="m 0.99373546,6.4811855 c 2.98441964,-2.0243033 7.32511084,-2.018857 10.56407954,0 -3.3470479,2.2771955 -7.5319856,2.2493865 -10.56407954,0 z"
       id="path13"
       sodipodi:nodetypes="ccc" />
    <path
       style="fill:none;stroke:#000000;stroke-width:0.4;stroke-linecap:round;stroke-linejoin:round;stroke-dasharray:none"
       d="m 0.99373546,12.302019 c 2.98441964,-2.024303 7.32511084,-2.018857 10.56407954,0 -3.3470479,2.277196 -7.5319856,2.249387 -10.56407954,0 z"
       id="path13-6"
       sodipodi:nodetypes="ccc" />
    <path
       style="fill:none;stroke:#000000;stroke-width:0.4;stroke-linecap:round;stroke-linejoin:round;stroke-dasharray:none"
       d="m 0.99373546,18.122852 c 2.98441964,-2.024304 7.32511084,-2.018857 10.56408054,0 -3.3470489,2.277195 -7.5319866,2.249386 -10.56408054,0 z"
       id="path13-5"
       sodipodi:nodetypes="ccc" />
    <path
       style="fill:none;stroke:#000000;stroke-width:0.4;stroke-linecap:round;stroke-linejoin:round;stroke-dasharray:none"
       d="m 18.456236,6.4811855 c 2.98442,-2.0243033 7.325111,-2.018857 10.56408,0 -3.347048,2.2771955 -7.531986,2.2493865 -10.56408,0 z"
       id="path13-4"
       sodipodi:nodetypes="ccc" />
    <path
       style="fill:none;stroke:#000000;stroke-width:0.4;stroke-linecap:round;stroke-linejoin:round;stroke-dasharray:none"
       d="m 18.456236,12.302019 c 2.98442,-2.024304 7.325111,-2.018857 10.56408,0 -3.347048,2.277195 -7.531986,2.249386 -10.56408,0 z"
       id="path13-8"
       sodipodi:nodetypes="ccc" />
    <path
       style="fill:none;stroke:#000000;stroke-width:0.4;stroke-linecap:round;stroke-linejoin:round;stroke-dasharray:none"
       d="m 18.456236,18.122852 c 2.98442,-2.024304 7.325111,-2.018857 10.56408,0 -3.347048,2.277195 -7.531986,2.249386 -10.56408,0 z"
       id="path13-3"
       sodipodi:nodetypes="ccc" />
    <path
       style="fill:none;stroke:#000000;stroke-width:0.4;stroke-linecap:round;stroke-linejoin:round;stroke-dasharray:none"
       d="m 18.456236,23.943686 c 2.98442,-2.024304 7.325111,-2.018857 10.56408,0 -3.347048,2.277195 -7.531986,2.249386 -10.56408,0 z"
       id="path13-0"
       sodipodi:nodetypes="ccc" />
  </g>
</svg>
